<svg width="79" height="53" viewBox="0 0 79 53" fill="none" xmlns="http://www.w3.org/2000/svg">
<path d="M27.5233 2.76773C23.7305 2.76773 20.4247 3.45966 17.6057 4.84352C14.838 6.17613 12.5316 7.9444 10.6864 10.1483C8.84129 12.301 7.45744 14.7356 6.53487 17.4521C5.66355 20.1685 5.2279 22.8594 5.2279 25.5246C5.2279 28.5486 5.81731 31.5213 6.99615 34.4428C8.17499 37.3131 9.78949 39.8758 11.8396 42.131C13.9411 44.3349 16.3756 46.1288 19.1433 47.5127C21.911 48.8453 24.9094 49.5116 28.1384 49.5116C29.0609 49.5116 30.1373 49.4091 31.3674 49.204C32.6487 48.999 33.9044 48.6146 35.1345 48.0508C36.3646 47.4358 37.4922 46.5901 38.5173 45.5137C39.5936 44.4374 40.4137 43.0279 40.9775 41.2853H41.7463V49.8191C40.9775 49.8191 40.1574 49.9216 39.2861 50.1266C38.466 50.3316 37.5435 50.5623 36.5184 50.8185C35.1858 51.1773 33.6994 51.5105 32.0593 51.818C30.4704 52.1255 28.779 52.2793 26.9852 52.2793C22.5261 52.2793 18.6052 51.5105 15.2224 49.9729C11.8396 48.4352 9.02068 46.4363 6.76551 43.9761C4.51034 41.5159 2.81896 38.7482 1.69138 35.6729C0.563793 32.5464 0 29.3943 0 26.2165C0 23.0388 0.563793 19.8866 1.69138 16.7601C2.81896 13.6336 4.53597 10.8403 6.84239 8.38006C9.14882 5.86861 12.0447 3.84406 15.5299 2.30644C19.0152 0.768812 23.1155 0 27.8309 0C29.5222 0 31.0342 0.153762 32.3668 0.461286C33.7507 0.76881 34.9808 1.07634 36.0571 1.38386C36.8259 1.64013 37.5178 1.84515 38.1329 1.99891C38.7992 2.10142 39.4399 2.15268 40.0549 2.15268V10.6865H39.2861C38.9786 9.09762 38.4148 7.79064 37.5947 6.76555C36.7747 5.68922 35.8008 4.86915 34.6732 4.30535C33.5969 3.74156 32.4181 3.35715 31.1367 3.15213C29.9066 2.89586 28.7022 2.76773 27.5233 2.76773Z" fill="#111111"/>
<path d="M47.3477 51.0432H47.7321C48.1421 51.0432 48.5009 50.915 48.8084 50.6588C49.1159 50.3512 49.3722 49.9925 49.5772 49.5824C49.8335 49.1724 50.0129 48.7367 50.1154 48.2755C50.2691 47.8142 50.346 47.3785 50.346 46.9685V5.83695C50.346 5.47817 50.2691 5.06814 50.1154 4.60685C50.0129 4.14557 49.8335 3.7099 49.5772 3.29987C49.3722 2.88983 49.1159 2.55668 48.8084 2.30041C48.5009 1.99289 48.1421 1.83913 47.7321 1.83913H47.3477V1.07031H58.4185V1.83913H58.0341C57.6241 1.83913 57.2653 1.99289 56.9578 2.30041C56.6502 2.55668 56.394 2.88983 56.1889 3.29987C55.9839 3.7099 55.8045 4.14557 55.6508 4.60685C55.5483 5.06814 55.497 5.47817 55.497 5.83695V48.9674H72.3339C73.3077 48.9674 74.1534 48.7367 74.871 48.2755C75.5885 47.8142 76.178 47.2504 76.6392 46.5841C77.1518 45.8665 77.5106 45.1233 77.7156 44.3545C77.9718 43.5344 78.1 42.7912 78.1 42.1249H78.8688V51.812H47.3477V51.0432Z" fill="#FFD06B"/>
</svg>
